<?xml version="1.0" encoding="UTF-8" standalone="no"?>
<!DOCTYPE svg PUBLIC "-//W3C//DTD SVG 1.1//EN" "http://www.w3.org/Graphics/SVG/1.1/DTD/svg11.dtd">
<svg width="100%" height="100%" viewBox="0 0 800 800" version="1.1" xmlns="http://www.w3.org/2000/svg" xmlns:xlink="http://www.w3.org/1999/xlink" xml:space="preserve" xmlns:serif="http://www.serif.com/" style="fill-rule:evenodd;clip-rule:evenodd;stroke-linejoin:round;stroke-miterlimit:2;">
    <g transform="matrix(1,0,0,1,-1159,-809)">
        <g transform="matrix(2.02015,0,0,2.02017,872.216,252.584)">
            <rect x="142.327" y="275.741" width="396.011" height="396.011" style="fill:none;"/>
            <g>
                <g transform="matrix(0.495014,0,0,0.495007,25.6434,-125.031)">
                    <path d="M518.796,1026.5L958.331,1026.5L958.331,1392.77L518.796,1392.77C518.796,1376.76 505.802,1363.77 489.796,1363.77C473.791,1363.77 460.796,1376.76 460.796,1392.77L313.106,1392.77L313.106,1026.5L460.796,1026.5C460.796,1042.51 473.791,1055.5 489.796,1055.5C505.802,1055.5 518.796,1042.51 518.796,1026.5Z" style="fill:url(#_Linear1);"/>
                </g>
                <g transform="matrix(0.495014,0,0,0.495007,25.6434,-125.031)">
                    <path d="M491.463,1363.81C490.91,1363.78 490.355,1363.77 489.796,1363.77C473.791,1363.77 460.796,1376.76 460.796,1392.77L313.106,1392.77L313.106,1026.5L460.796,1026.5C460.796,1042.51 473.791,1055.5 489.796,1055.5C490.355,1055.5 490.91,1055.49 491.463,1055.45L491.463,1363.81Z" style="fill:url(#_Linear2);"/>
                </g>
                <g transform="matrix(0.495014,0,0,0.495007,25.6434,-125.031)">
                    <path d="M491.463,1305.63C499.558,1305.63 506.13,1312.21 506.13,1320.3C506.13,1328.39 499.558,1334.97 491.463,1334.97C483.368,1334.97 476.796,1328.39 476.796,1320.3C476.796,1312.21 483.368,1305.63 491.463,1305.63ZM491.463,1251.21C499.558,1251.21 506.13,1257.78 506.13,1265.88C506.13,1273.97 499.558,1280.55 491.463,1280.55C483.368,1280.55 476.796,1273.97 476.796,1265.88C476.796,1257.78 483.368,1251.21 491.463,1251.21ZM491.463,1196.79C499.558,1196.79 506.13,1203.36 506.13,1211.46C506.13,1219.55 499.558,1226.12 491.463,1226.12C483.368,1226.12 476.796,1219.55 476.796,1211.46C476.796,1203.36 483.368,1196.79 491.463,1196.79ZM491.463,1142.37C499.558,1142.37 506.13,1148.94 506.13,1157.04C506.13,1165.13 499.558,1171.7 491.463,1171.7C483.368,1171.7 476.796,1165.13 476.796,1157.04C476.796,1148.94 483.368,1142.37 491.463,1142.37ZM491.463,1087.95C499.558,1087.95 506.13,1094.52 506.13,1102.62C506.13,1110.71 499.558,1117.28 491.463,1117.28C483.368,1117.28 476.796,1110.71 476.796,1102.62C476.796,1094.52 483.368,1087.95 491.463,1087.95Z" style="fill:white;"/>
                </g>
                <g transform="matrix(0.495007,0,0,0.495007,25.6468,-149.451)">
                    <path d="M555.003,1287.53C547.225,1287.53 540.781,1280.53 540.781,1272.86L540.781,1237.85C540.781,1230.18 547.225,1223.18 555.003,1223.18C560.892,1223.18 566.447,1226.51 570.892,1231.4L578.336,1218.63C571.559,1211.97 565.003,1208.19 555.003,1208.19C537.006,1208.19 524.906,1220.18 524.906,1237.85L524.906,1272.86C524.906,1290.53 537.006,1302.51 555.003,1302.51C565.003,1302.51 571.559,1298.74 578.336,1292.19L570.892,1279.3C566.447,1284.19 560.892,1287.53 555.003,1287.53Z" style="fill:url(#_Linear3);fill-rule:nonzero;"/>
                    <path d="M617.455,1208.19C602.006,1208.19 589.35,1220.63 589.35,1235.74L589.35,1274.97C589.35,1290.19 601.895,1302.51 617.455,1302.51C632.903,1302.51 645.67,1290.19 645.67,1274.97L645.67,1235.74C645.67,1220.63 632.903,1208.19 617.455,1208.19ZM605.226,1274.97L605.226,1235.74C605.226,1228.74 610.562,1223.29 617.455,1223.29C624.348,1223.29 629.462,1228.74 629.462,1235.74L629.462,1274.97C629.462,1282.19 624.348,1287.53 617.455,1287.53C610.562,1287.53 605.226,1282.08 605.226,1274.97Z" style="fill:url(#_Linear4);fill-rule:nonzero;"/>
                    <path d="M701.351,1209.53L701.351,1274.97C701.351,1282.19 696.015,1287.53 689.122,1287.53C682.229,1287.53 676.893,1282.08 676.893,1274.97L676.893,1209.53L661.018,1209.53L661.018,1274.97C661.018,1290.19 673.562,1302.51 689.122,1302.51C704.571,1302.51 717.337,1290.19 717.337,1274.97L717.337,1209.53L701.351,1209.53Z" style="fill:url(#_Linear5);fill-rule:nonzero;"/>
                    <path d="M758.344,1209.53L732.685,1209.53L732.685,1301.07L748.56,1301.07L748.56,1263.51L756.787,1263.51C773.571,1263.51 786.005,1252.08 786.005,1236.74C786.005,1221.52 773.571,1209.53 758.344,1209.53ZM748.56,1248.53L748.56,1224.51L758.344,1224.51C764.904,1224.51 770.018,1229.74 770.018,1236.74C770.018,1243.63 765.015,1248.53 756.787,1248.53L748.56,1248.53Z" style="fill:url(#_Linear6);fill-rule:nonzero;"/>
                    <path d="M826.345,1208.19C810.897,1208.19 798.241,1220.63 798.241,1235.74L798.241,1274.97C798.241,1290.19 810.786,1302.51 826.345,1302.51C841.794,1302.51 854.561,1290.19 854.561,1274.97L854.561,1235.74C854.561,1220.63 841.794,1208.19 826.345,1208.19ZM814.116,1274.97L814.116,1235.74C814.116,1228.74 819.452,1223.29 826.345,1223.29C833.238,1223.29 838.352,1228.74 838.352,1235.74L838.352,1274.97C838.352,1282.19 833.238,1287.53 826.345,1287.53C819.452,1287.53 814.116,1282.08 814.116,1274.97Z" style="fill:url(#_Linear7);fill-rule:nonzero;"/>
                    <path d="M908.797,1209.53L908.797,1263.41L885.006,1209.53L869.908,1209.53L869.908,1301.07L885.783,1301.07L885.783,1247.41L909.685,1301.07L924.895,1301.07L924.895,1209.53L908.797,1209.53Z" style="fill:url(#_Linear8);fill-rule:nonzero;"/>
                </g>
            </g>
        </g>
    </g>
    <defs>
        <linearGradient id="_Linear1" x1="0" y1="0" x2="1" y2="0" gradientUnits="userSpaceOnUse" gradientTransform="matrix(-722.613,583.136,-583.136,-722.613,1035.72,809.628)"><stop offset="0" style="stop-color:rgb(235,223,204);stop-opacity:1"/><stop offset="1" style="stop-color:rgb(237,238,211);stop-opacity:1"/></linearGradient>
        <linearGradient id="_Linear2" x1="0" y1="0" x2="1" y2="0" gradientUnits="userSpaceOnUse" gradientTransform="matrix(958.331,-366.262,152.14,398.076,4.33431e-13,1392.76)"><stop offset="0" style="stop-color:rgb(252,204,161);stop-opacity:1"/><stop offset="1" style="stop-color:rgb(223,100,78);stop-opacity:1"/></linearGradient>
        <linearGradient id="_Linear3" x1="0" y1="0" x2="1" y2="0" gradientUnits="userSpaceOnUse" gradientTransform="matrix(958.344,-366.262,152.142,398.076,-0.0069512,1442.1)"><stop offset="0" style="stop-color:rgb(148,151,158);stop-opacity:1"/><stop offset="1" style="stop-color:rgb(69,76,84);stop-opacity:1"/></linearGradient>
        <linearGradient id="_Linear4" x1="0" y1="0" x2="1" y2="0" gradientUnits="userSpaceOnUse" gradientTransform="matrix(958.344,-366.262,152.142,398.076,-0.0069512,1442.1)"><stop offset="0" style="stop-color:rgb(148,151,158);stop-opacity:1"/><stop offset="1" style="stop-color:rgb(69,76,84);stop-opacity:1"/></linearGradient>
        <linearGradient id="_Linear5" x1="0" y1="0" x2="1" y2="0" gradientUnits="userSpaceOnUse" gradientTransform="matrix(958.344,-366.262,152.142,398.076,-0.0069512,1442.1)"><stop offset="0" style="stop-color:rgb(148,151,158);stop-opacity:1"/><stop offset="1" style="stop-color:rgb(69,76,84);stop-opacity:1"/></linearGradient>
        <linearGradient id="_Linear6" x1="0" y1="0" x2="1" y2="0" gradientUnits="userSpaceOnUse" gradientTransform="matrix(958.344,-366.262,152.142,398.076,-0.0069512,1442.1)"><stop offset="0" style="stop-color:rgb(148,151,158);stop-opacity:1"/><stop offset="1" style="stop-color:rgb(69,76,84);stop-opacity:1"/></linearGradient>
        <linearGradient id="_Linear7" x1="0" y1="0" x2="1" y2="0" gradientUnits="userSpaceOnUse" gradientTransform="matrix(958.344,-366.262,152.142,398.076,-0.0069512,1442.1)"><stop offset="0" style="stop-color:rgb(148,151,158);stop-opacity:1"/><stop offset="1" style="stop-color:rgb(69,76,84);stop-opacity:1"/></linearGradient>
        <linearGradient id="_Linear8" x1="0" y1="0" x2="1" y2="0" gradientUnits="userSpaceOnUse" gradientTransform="matrix(958.344,-366.262,152.142,398.076,-0.0069512,1442.1)"><stop offset="0" style="stop-color:rgb(148,151,158);stop-opacity:1"/><stop offset="1" style="stop-color:rgb(69,76,84);stop-opacity:1"/></linearGradient>
    </defs>
</svg>
