<svg width="190" height="32" viewBox="0 0 190 32" fill="none" xmlns="http://www.w3.org/2000/svg">
<path d="M29.1886 19.2746L35.0341 16.6936C35.9217 16.3016 36.3161 15.2809 35.915 14.4136L31.6179 5.12423C31.2168 4.25699 30.172 3.87168 29.2843 4.26362L23.4388 6.84468C22.5512 7.23662 22.1568 8.25738 22.558 9.12462L26.855 18.414C27.2561 19.2812 28.3009 19.6666 29.1886 19.2746Z" fill="#FAEE00"/>
<path d="M21.4716 6.25792C21.3586 5.38099 21.8586 4.50815 22.7415 4.17905C23.0282 4.07276 23.3253 4.04005 23.6119 4.06049C23.6893 3.17539 24.2689 2.36592 25.1748 2.0266C26.0326 1.70567 26.9595 1.88964 27.6185 2.42724C27.8194 2.08792 28.1269 1.80788 28.5307 1.65661C29.4471 1.31524 30.466 1.75064 30.8405 2.62961C31.5456 2.6521 32.2005 3.07932 32.4683 3.76409C32.824 4.67577 32.3574 5.69579 31.4264 6.04328C30.9996 6.20273 30.5518 6.18637 30.1543 6.04328C29.9848 6.51752 29.6187 6.92021 29.0998 7.1144C28.7295 7.2534 28.3445 7.25953 27.9888 7.1655C27.9219 7.88912 27.4532 8.54937 26.7126 8.82533C25.9447 9.1115 25.1099 8.90709 24.566 8.36949C24.4007 8.95002 23.9718 9.45083 23.3525 9.68386C22.3147 10.0702 21.1535 9.56325 20.7581 8.55142C20.4255 7.69902 20.7456 6.76486 21.4716 6.25792Z" fill="white"/>
<path d="M29.6124 15.9287C31.5051 15.9287 33.0395 14.4296 33.0395 12.5804C33.0395 10.7312 31.5051 9.23218 29.6124 9.23218C27.7197 9.23218 26.1854 10.7312 26.1854 12.5804C26.1854 14.4296 27.7197 15.9287 29.6124 15.9287Z" fill="#007D4F"/>
<path d="M28.6354 14.8553L28.2608 14.6611C26.1749 13.3386 27.131 10.1375 29.6459 10.1539C31.6816 10.1661 32.8847 12.521 31.6251 14.0929C31.1209 14.7225 30.0915 15.1456 29.2798 14.9596C28.2295 14.7163 28.2671 13.6779 29.2003 13.263C29.7526 13.0177 30.102 13.1342 30.6564 13.1689C30.8594 13.1812 31.0644 13.1199 30.9891 12.8787C30.8908 12.568 30.2924 12.0713 30.0037 11.9098C29.8781 11.8382 29.8426 11.8117 29.7003 11.873C29.4722 11.9711 29.2735 12.1285 29.0287 12.2246C28.6333 12.3779 28.1416 12.3901 27.8278 12.0692C27.7901 12.0304 27.6918 11.9179 27.719 11.8628C27.7462 11.8076 27.8236 11.8934 27.8591 11.9139C28.2295 12.1244 28.8571 12.014 29.194 11.7789C29.3593 11.6645 29.2609 11.6072 29.1291 11.5357C28.9073 11.4171 28.3885 11.2434 28.4952 10.9041C28.5663 10.6751 28.8299 10.6813 29.0224 10.7405C29.2902 10.8243 29.4911 10.9429 29.7924 10.9122C29.9786 10.8938 30.2966 10.6976 30.4556 10.8366C30.6544 11.0104 30.3761 11.2965 30.2485 11.4212C30.2045 11.4662 30.1292 11.5173 30.0936 11.5623C30.0183 11.6583 30.1878 11.7503 30.2589 11.7973C30.5686 11.9997 30.8406 12.151 31.1105 12.4147C31.3364 12.6334 31.736 13.1321 31.4703 13.4388C31.2444 13.6984 30.9159 13.5124 30.6564 13.4306C30.2296 13.2957 29.6794 13.1792 29.2672 13.4122C28.7672 13.6963 28.7985 14.328 29.3572 14.5221C29.7275 14.6509 30.2275 14.5671 30.5895 14.4424C32.4767 13.8026 32.3072 11.3538 30.6313 10.5606C29.3634 9.96172 27.855 10.5995 27.4156 11.8934C27.0557 12.9543 27.5788 14.1849 28.5203 14.7818C28.5328 14.7899 28.65 14.8431 28.6374 14.8594L28.6354 14.8553ZM29.012 10.8448C28.9345 10.8714 28.9094 10.949 28.9345 11.0226C28.9931 11.1821 29.4199 11.411 29.5873 11.4233C29.7861 11.4376 29.9304 11.2107 29.7526 11.0819C29.6794 11.0288 29.3028 10.8918 29.2023 10.8632C29.1459 10.8468 29.0705 10.8264 29.014 10.8468L29.012 10.8448Z" fill="white"/>
<path d="M36.1966 14.2893L32.2884 5.84096C32.462 5.66721 32.6085 5.46893 32.7131 5.23999C32.9432 4.7351 32.96 4.17501 32.757 3.65785C32.4746 2.93832 31.8155 2.43955 31.0456 2.34552C30.5518 1.42158 29.4346 0.998452 28.4219 1.37661C28.0767 1.50539 27.7775 1.72002 27.5453 2.00007C26.813 1.5381 25.8903 1.43794 25.066 1.7466C24.1622 2.08388 23.5219 2.8402 23.3441 3.75596C23.0972 3.76618 22.8587 3.8132 22.6327 3.89905C21.6912 4.25064 21.1012 5.15005 21.1494 6.12305C20.3962 6.73833 20.1158 7.75834 20.4694 8.66184C20.6912 9.22602 21.1242 9.67368 21.6891 9.92102C21.9925 10.0518 22.3126 10.1193 22.6348 10.1193C22.6495 10.1193 22.662 10.1152 22.6767 10.1152L23.0449 10.9104L21.3167 11.6728C20.7204 11.9365 20.4903 12.7031 20.8041 13.3838L22.9549 18.0321C23.1035 18.351 23.3483 18.6065 23.6475 18.7516C23.8211 18.8354 24.0011 18.8783 24.1768 18.8783C24.3254 18.8783 24.4718 18.8477 24.6099 18.7884L26.3381 18.0259L26.5766 18.5411C26.8046 19.0337 27.2147 19.4098 27.7336 19.602C27.9721 19.6898 28.219 19.7328 28.4659 19.7328C28.7567 19.7328 29.0454 19.6715 29.3174 19.5529L35.1631 16.9712C36.205 16.5112 36.6695 15.3093 36.1987 14.2913L36.1966 14.2893ZM21.0468 8.44312C20.7728 7.73995 21.0196 6.94274 21.6515 6.50326C21.7435 6.43784 21.7938 6.32951 21.7791 6.21912C21.6808 5.45667 22.1222 4.73305 22.8545 4.45914C23.0407 4.38964 23.2395 4.35489 23.4466 4.35489C23.4947 4.35489 23.5408 4.35489 23.591 4.36102C23.7584 4.37329 23.9069 4.25064 23.9216 4.08507C23.9927 3.27764 24.5157 2.59695 25.2857 2.30873C26.0075 2.03891 26.8256 2.17177 27.4218 2.65827C27.4909 2.71551 27.585 2.73799 27.675 2.72369C27.765 2.70733 27.8424 2.65419 27.8884 2.57651C28.0642 2.27807 28.3257 2.0573 28.6437 1.9367C29.4032 1.65461 30.2443 2.00824 30.5581 2.74413C30.6041 2.85247 30.7129 2.92605 30.8343 2.93014C31.4368 2.95058 31.9662 3.31852 32.1838 3.87044C32.4788 4.62471 32.0917 5.47098 31.3197 5.7592C30.9807 5.88593 30.6167 5.88389 30.2652 5.75715C30.1878 5.72854 30.102 5.73263 30.0267 5.76737C29.9513 5.80212 29.8928 5.86549 29.8656 5.94112C29.717 6.35404 29.4011 6.67701 28.9931 6.83032C28.7023 6.93865 28.3822 6.95501 28.0725 6.87324C27.9847 6.85076 27.8905 6.86507 27.8152 6.91821C27.7399 6.96932 27.6917 7.04904 27.6834 7.13898C27.6248 7.77879 27.2105 8.31843 26.6038 8.54533C25.9761 8.7804 25.2627 8.62914 24.7877 8.15899C24.7103 8.08131 24.5973 8.05065 24.4906 8.07927C24.3839 8.10584 24.3002 8.18761 24.271 8.29186C24.1245 8.80902 23.75 9.2158 23.2437 9.40386C22.819 9.56125 22.3587 9.54899 21.9423 9.36911C21.528 9.18923 21.21 8.86012 21.0468 8.44517V8.44312ZM25.3757 15.9491L24.5304 16.3232C24.4844 16.3436 24.4341 16.3293 24.4028 16.315C24.34 16.2864 24.2856 16.2292 24.2542 16.1597L23.1014 13.6679C23.0679 13.5963 23.0617 13.5207 23.0805 13.4553C23.0909 13.4205 23.1119 13.3756 23.16 13.3551L24.0052 12.9811L25.3777 15.9491H25.3757ZM24.3526 18.2344C24.2249 18.2896 24.0722 18.2815 23.9216 18.2079C23.75 18.1241 23.6056 17.9728 23.5178 17.7806L21.3669 13.1323C21.1954 12.7623 21.2895 12.3453 21.5699 12.2206L23.2981 11.4582L23.7479 12.4291L22.9026 12.8032C22.7018 12.8911 22.5491 13.0669 22.4842 13.2856C22.4235 13.49 22.4424 13.7129 22.5344 13.9152L23.6872 16.407C23.7814 16.6094 23.9404 16.7709 24.1371 16.8608C24.2459 16.9099 24.363 16.9364 24.4781 16.9364C24.5827 16.9364 24.6873 16.916 24.7836 16.8731L25.6288 16.501L26.0786 17.472L24.3505 18.2344H24.3526ZM34.9057 16.4172L29.0601 18.9989C28.7065 19.1563 28.311 19.1666 27.9491 19.0337C27.585 18.8988 27.2984 18.6351 27.1373 18.2896L23.7353 10.9369L23.3085 10.013C23.3608 9.99665 23.4131 9.98847 23.4654 9.97008C24.0136 9.76567 24.4467 9.37728 24.704 8.87239C25.3233 9.27917 26.1142 9.37728 26.8256 9.11155C27.5495 8.84173 28.0725 8.24689 28.2462 7.52123C28.5747 7.55598 28.9031 7.51305 29.2128 7.39858C29.6982 7.21665 30.0957 6.86507 30.3321 6.41127C30.7359 6.49917 31.1565 6.4726 31.5393 6.32951C31.6251 6.2968 31.7025 6.25387 31.782 6.21095L35.6359 14.5407C35.9665 15.2541 35.6401 16.0983 34.9099 16.4193L34.9057 16.4172Z" fill="#7FBE26"/>
<path d="M16.5088 8.94591C17.1559 8.94591 17.6805 8.4334 17.6805 7.8012C17.6805 7.169 17.1559 6.65649 16.5088 6.65649C15.8617 6.65649 15.3372 7.169 15.3372 7.8012C15.3372 8.4334 15.8617 8.94591 16.5088 8.94591Z" fill="white"/>
<path d="M11.4393 13.7475C14.3674 13.7475 16.741 11.4284 16.741 8.56773C16.741 5.70701 14.3674 3.38794 11.4393 3.38794C8.51129 3.38794 6.13763 5.70701 6.13763 8.56773C6.13763 11.4284 8.51129 13.7475 11.4393 13.7475Z" fill="white"/>
<path d="M6.9285 8.15679C6.72974 8.26309 6.4996 8.32236 6.2569 8.32236C5.47859 8.32236 4.84674 7.70504 4.84674 6.94463C4.84674 6.18422 5.47859 5.56689 6.2569 5.56689C6.54981 5.56689 6.81971 5.65275 7.04567 5.80197" fill="white"/>
<path d="M21.0029 13.0197C21.0029 13.0197 20.4715 11.9057 19.6471 12.3227C18.8228 12.7397 19.0425 13.4592 18.7538 14.332C18.7538 14.332 18.6282 21.4517 14.5149 23.6328C10.4016 25.8159 8.437 24.1377 6.74858 24.1377L2.42395 27.4553C2.42395 27.4553 8.40144 33.279 18.1617 28.7308C24.8401 25.6176 23.6956 18.2629 23.6956 18.2629C25.9971 17.9787 24.771 15.8447 24.771 15.8447C25.3338 14.1787 24.0157 14.0377 24.0157 14.0377C22.9215 11.7381 21.7352 12.1694 21.0008 13.0197H21.0029Z" fill="white"/>
<path d="M13.5881 5.77946C13.4981 5.77946 13.4081 5.74676 13.3391 5.6793C13.201 5.54439 13.201 5.32771 13.3391 5.1928C13.4123 5.12126 13.4353 5.03336 13.4249 4.97817C13.4186 4.94546 13.404 4.93116 13.3809 4.92298C13.2345 4.85961 13.0462 5.0538 12.9771 5.17236C12.8809 5.33793 12.6654 5.39312 12.4959 5.2991C12.3265 5.20507 12.27 4.99452 12.3662 4.82895C12.6236 4.39355 13.1508 4.07058 13.6676 4.29339C13.9061 4.39764 14.0714 4.60001 14.1195 4.85348C14.1739 5.1417 14.0672 5.45854 13.8391 5.68135C13.7701 5.7488 13.6801 5.78151 13.5902 5.78151L13.5881 5.77946Z" fill="#7FBE26"/>
<path d="M18.0319 7.80118C18.0319 7.01011 17.3959 6.36826 16.5988 6.32124C15.7159 4.3916 13.7366 3.04248 11.4373 3.04248C9.60865 3.04248 7.91813 3.89283 6.85528 5.33189C6.66489 5.26444 6.46194 5.2256 6.25481 5.2256C5.28402 5.2256 4.49316 5.99827 4.49316 6.94674C4.49316 7.20226 4.55383 7.44346 4.65635 7.66014C4.63961 7.67649 4.62078 7.69284 4.60823 7.70511C4.36762 7.94018 4.12074 8.18139 3.89478 8.44508C3.76088 8.60043 3.61233 8.79054 3.52027 9.02152C3.34034 9.47123 3.39892 10.0129 3.68347 10.5076C4.08936 11.2128 4.8844 11.6891 5.71292 11.7198C5.74222 11.7198 5.7736 11.7198 5.80289 11.7198C6.10208 11.7198 6.39918 11.6625 6.67953 11.5562C7.68171 13.0852 9.43081 14.0889 11.4373 14.0889C14.3392 14.0889 16.7369 11.9405 17.0528 9.18505C17.6302 8.96837 18.0299 8.41851 18.0299 7.7971L18.0319 7.80118ZM11.4393 13.4041C9.69652 13.4041 8.17757 12.5394 7.29465 11.2189C7.50387 11.0636 7.69008 10.8796 7.83444 10.667C8.1148 10.2582 8.31356 9.58979 7.95161 9.06036C7.78214 8.81302 7.53735 8.66789 7.32185 8.54115C7.25908 8.50436 7.19631 8.46757 7.13773 8.42668C7.27372 8.32448 7.32185 8.14459 7.23816 7.99333C7.1461 7.82571 6.93269 7.76439 6.76113 7.85433C6.60631 7.93814 6.43683 7.97902 6.2569 7.97902C5.67317 7.97902 5.20033 7.51501 5.20033 6.9447C5.20033 6.37439 5.67526 5.91242 6.2569 5.91242C6.46822 5.91242 6.67326 5.97374 6.849 6.08821C7.0101 6.19451 7.22979 6.15363 7.33858 5.99623C7.38043 5.93491 7.39298 5.86541 7.39298 5.79795C8.32193 4.50402 9.81578 3.73135 11.4414 3.73135C13.9772 3.73135 16.0715 5.60376 16.3561 8.00764C14.6174 8.62087 11.1778 7.93814 10.1777 6.72802C10.0564 6.58085 9.83461 6.55836 9.68188 6.67692C9.53124 6.79752 9.50822 7.01215 9.62957 7.16138C10.5104 8.22636 12.8056 8.92545 14.7597 8.92545C15.3476 8.92545 15.9042 8.86004 16.3833 8.72308C16.2975 11.3171 14.1174 13.4021 11.4414 13.4021L11.4393 13.4041ZM17.0821 8.3674C17.0821 8.32857 17.0779 8.28973 17.0758 8.25089C17.0758 8.23045 17.0758 8.21001 17.0716 8.18752C17.0444 7.8114 16.9816 7.44551 16.8812 7.09392C17.1448 7.22679 17.3269 7.49252 17.3269 7.80118C17.3269 8.0199 17.2327 8.22023 17.0821 8.3674Z" fill="#7FBE26"/>
<path d="M25.1497 15.8142C25.3317 15.1948 25.2962 14.6838 25.0409 14.2954C24.8129 13.9479 24.476 13.8008 24.2605 13.7374C23.7877 12.8134 23.1977 12.3004 22.5072 12.2104C21.9821 12.1409 21.5155 12.331 21.1494 12.5743C20.9736 12.3392 20.7016 12.0592 20.3418 11.9426C20.0593 11.8527 19.7622 11.8772 19.486 12.0162C18.7579 12.3862 18.6638 12.9627 18.5738 13.5207C18.5634 13.5861 18.5508 13.6536 18.5383 13.719C16.5276 14.277 14.5589 14.4303 12.9688 14.5489C12.3955 14.5918 11.8536 14.6327 11.3954 14.6879C9.94968 14.8616 3.56421 16.4949 1.03053 20.7794C-0.28339 23.0054 -0.341972 25.5544 0.861057 28.3589C0.877795 28.4428 0.919639 28.5225 0.98659 28.5736C1.0389 28.6145 1.08702 28.6492 1.16443 28.6492C1.32762 28.6492 1.6289 28.4939 2.41349 27.9092C2.94282 28.3569 4.34461 29.4117 6.52053 30.123C7.66707 30.4971 9.13372 30.8017 10.8724 30.8017C12.9813 30.8017 15.4899 30.354 18.3123 29.0376C24.3233 26.2372 24.204 20.0476 24.0785 18.5431C24.6643 18.4102 25.0702 18.1322 25.2857 17.7152C25.6497 17.01 25.3087 16.1433 25.1476 15.8101L25.1497 15.8142ZM24.6559 17.4107C24.5137 17.6846 24.1747 17.8563 23.6517 17.9217C23.5575 17.934 23.4717 17.981 23.4152 18.0546C23.3588 18.1281 23.3336 18.2222 23.3483 18.3142C23.3922 18.6044 24.3693 25.4563 18.011 28.4203C9.70071 32.2918 4.2944 28.5634 2.98048 27.482C3.79645 26.8504 4.97856 25.8978 6.71301 24.4772C6.72556 24.4772 6.73602 24.4853 6.75067 24.4853C7.15656 24.4853 7.60011 24.5978 8.11062 24.7286C8.78431 24.9003 9.57099 25.1006 10.5355 25.1006C11.6507 25.1006 13.0022 24.8328 14.6844 23.9396C18.7893 21.7605 19.0864 15.0988 19.1053 14.3935C19.191 14.1196 19.2329 13.8621 19.2685 13.6352C19.3563 13.0853 19.4128 12.8339 19.8082 12.6336C19.917 12.5784 20.0133 12.5681 20.1179 12.6009C20.3125 12.6622 20.4903 12.8605 20.6096 13.0281C20.551 13.0894 20.4987 13.1446 20.4589 13.1916C20.3334 13.3367 20.3522 13.5534 20.5008 13.6761C20.6493 13.7987 20.8711 13.7803 20.9966 13.6352C21.164 13.441 21.7561 12.8134 22.411 12.8973C23.0031 12.9749 23.4362 13.6413 23.6956 14.1871C23.7458 14.2934 23.8546 14.369 23.9739 14.3833C23.9781 14.3833 24.2898 14.4263 24.4509 14.6777C24.5994 14.9087 24.5932 15.2766 24.4362 15.7406C24.4049 15.8326 24.4153 15.9328 24.4634 16.0166C24.5974 16.2516 24.8924 16.961 24.6559 17.4147V17.4107Z" fill="#7FBE26"/>
<path d="M170.928 6.30277C170.861 5.29911 170.319 4.35677 169.658 3.73741C168.333 2.49867 166.203 2.23498 164.481 3.0976C164.278 3.1998 164.021 3.34698 163.835 3.5841C163.463 4.05629 163.55 4.66543 164.059 5.13967C164.199 5.27049 164.423 5.26641 164.557 5.12741C164.586 5.09674 164.607 5.06199 164.624 5.0252L169.561 7.08362L169.478 7.23489C169.417 7.34527 169.421 7.48018 169.492 7.58648L170.735 9.44458C170.802 9.5427 170.913 9.59993 171.03 9.59993C171.057 9.59993 171.087 9.59584 171.116 9.58971L172.032 9.3669C172.204 9.32602 172.319 9.16453 172.298 8.99283C172.122 7.56195 171.382 6.70342 170.928 6.30277Z" fill="#7FBE26"/>
<path d="M188.839 6.57275C188.592 4.31195 187.245 5.24407 187.245 5.24407C187.245 5.24407 187.262 3.92766 186.205 3.94401C185.54 3.99307 185.404 4.34466 185.404 4.34466C185.404 4.34466 185.301 3.74573 184.397 3.81115C183.493 3.8786 183.085 6.08216 183.085 6.08216V6.16188C182.705 6.00857 182.301 6.09033 181.943 6.31928C181.119 6.8487 182.51 9.2117 182.083 11.031C181.248 14.602 177.336 16.9548 175.675 17.8093L176.305 21.1882L176.175 21.3681L176.671 23.1546L176.763 23.6493L176.798 23.6145L177.058 24.5487C180.658 22.9584 189.58 17.8583 188.839 6.5707V6.57275Z" fill="white"/>
<path d="M165.774 4.76987C164.649 4.76987 163.624 5.09897 162.766 5.68359C161.678 4.88638 161.056 5.77966 161.715 6.6157L161.665 6.67907C160.883 7.58257 160.473 8.67208 160.473 9.94761C160.473 12.8094 162.847 15.1274 165.774 15.1274C168.701 15.1274 171.076 12.8073 171.076 9.94761C171.076 7.08789 168.701 4.76782 165.774 4.76782V4.76987Z" fill="white"/>
<path d="M170.25 9.00515C170.486 8.8498 170.771 8.75781 171.078 8.75781C171.896 8.75781 172.56 9.4058 172.56 10.205C172.56 11.0043 171.896 11.6523 171.078 11.6523C170.524 11.6523 170.041 11.3538 169.787 10.9144" fill="white"/>
<path d="M161.688 8.04233C161.688 8.04233 162.661 8.06481 163.368 8.19768C164.128 8.34077 163.182 10.1519 162.529 10.1375C161.877 10.1232 161.69 8.04028 161.69 8.04028L161.688 8.04233Z" fill="#7FBE26"/>
<path d="M161.751 8.74356C161.751 8.74356 162.343 9.37519 163.617 8.93571C163.617 8.93571 163.898 8.31839 163.013 8.29386C162.13 8.27137 161.676 8.19165 161.676 8.19165L161.751 8.74356Z" fill="white"/>
<path d="M153.754 4.32266L147.369 3.72088C146.4 3.6295 145.538 4.32335 145.444 5.27065L144.443 15.4176C144.349 16.3648 145.059 17.2069 146.029 17.2982L152.414 17.9C153.384 17.9914 154.245 17.2975 154.339 16.3503L155.341 6.20335C155.434 5.25605 154.724 4.41404 153.754 4.32266Z" fill="#FAEE00"/>
<path d="M155.422 3.14671C155.24 2.28001 154.479 1.61362 153.533 1.57887C153.225 1.56865 152.934 1.62998 152.671 1.7424C152.305 0.928846 151.491 0.344229 150.52 0.309479C149.602 0.276773 148.786 0.742831 148.34 1.45827C148.039 1.20071 147.654 1.0331 147.223 1.01674C146.244 0.981993 145.421 1.71583 145.359 2.66634C144.699 2.90959 144.22 3.52078 144.193 4.25258C144.155 5.22762 144.936 6.04527 145.932 6.08206C146.388 6.09842 146.806 5.94306 147.135 5.67937C147.451 6.07593 147.932 6.34167 148.486 6.36211C148.882 6.37642 149.25 6.26195 149.556 6.06162C149.857 6.72596 150.52 7.20224 151.313 7.23086C152.135 7.25947 152.857 6.80159 153.194 6.12295C153.541 6.62171 154.112 6.96103 154.778 6.98352C155.887 7.0244 156.82 6.17814 156.859 5.09271C156.893 4.18103 156.282 3.39609 155.426 3.14671H155.422Z" fill="white"/>
<path d="M171.206 8.42661C170.513 6.06156 168.319 4.42627 165.774 4.42627C164.695 4.42627 163.661 4.71653 162.768 5.27049C162.123 4.88824 161.621 5.01293 161.351 5.27867C161.029 5.59755 161.008 6.11267 161.28 6.59508C160.51 7.54355 160.119 8.66985 160.119 9.94947C160.119 12.9952 162.655 15.4747 165.774 15.4747C168.101 15.4747 170.174 14.0847 171.026 11.9915C171.043 11.9915 171.059 11.9956 171.076 11.9956C172.087 11.9956 172.909 11.1923 172.909 10.205C172.909 9.21768 172.154 8.49406 171.206 8.42661ZM171.078 11.3068C170.67 11.3068 170.294 11.0901 170.095 10.7446C169.999 10.5791 169.783 10.5198 169.616 10.6138C169.446 10.7078 169.386 10.9163 169.482 11.0819C169.679 11.4233 169.982 11.6849 170.335 11.8382C169.566 13.6146 167.777 14.7879 165.779 14.7879C163.048 14.7879 160.828 12.6191 160.828 9.95152C160.828 8.77819 161.201 7.75205 161.948 6.89352L161.998 6.83015C162.096 6.7075 162.096 6.53375 161.998 6.40906C161.762 6.10858 161.772 5.84693 161.856 5.76516C161.946 5.67522 162.218 5.71406 162.557 5.96344C162.678 6.05339 162.845 6.05543 162.969 5.96958C163.789 5.41153 164.76 5.11718 165.777 5.11718C167.965 5.11718 169.858 6.49696 170.499 8.51041C170.342 8.56152 170.191 8.63102 170.053 8.72096C169.892 8.82725 169.85 9.04188 169.959 9.19928C170.068 9.35668 170.287 9.39756 170.448 9.29127C170.635 9.16862 170.854 9.10321 171.08 9.10321C171.702 9.10321 172.208 9.59788 172.208 10.205C172.208 10.8121 171.702 11.3068 171.08 11.3068H171.078Z" fill="#7FBE26"/>
<path d="M162.534 10.4831H162.519C161.644 10.4647 161.4 8.79053 161.335 8.07305C161.326 7.97493 161.36 7.87886 161.429 7.80731C161.498 7.73577 161.594 7.70102 161.695 7.69897C161.736 7.69897 162.705 7.7235 163.433 7.8625C163.743 7.92178 164.053 8.17934 163.994 8.72921C163.919 9.4283 163.237 10.4851 162.534 10.4851V10.4831ZM162.086 8.40215C162.19 9.09306 162.393 9.72061 162.552 9.79828C162.603 9.79419 162.831 9.63884 163.046 9.28725C163.293 8.88456 163.318 8.57999 163.287 8.51867C162.904 8.4553 162.423 8.42055 162.086 8.40215Z" fill="#7FBE26"/>
<path d="M149.796 15.1294C151.689 15.1294 153.223 13.6303 153.223 11.7811C153.223 9.93193 151.689 8.43286 149.796 8.43286C147.903 8.43286 146.369 9.93193 146.369 11.7811C146.369 13.6303 147.903 15.1294 149.796 15.1294Z" fill="#007D4F"/>
<path d="M147.61 13.0116L147.432 12.6355C146.591 10.3502 149.334 8.36738 151.326 9.86572C152.939 11.0779 152.439 13.6657 150.461 14.1727C149.671 14.375 148.587 14.1052 148.057 13.4756C147.371 12.6621 148.045 11.8567 149.045 12.0775C149.637 12.2083 149.842 12.5088 150.263 12.8644C150.418 12.9953 150.618 13.0668 150.706 12.8297C150.821 12.5251 150.65 11.7749 150.522 11.4744C150.466 11.3436 150.453 11.3007 150.302 11.2659C150.06 11.2087 149.804 11.2169 149.551 11.1494C149.141 11.037 148.742 10.757 148.691 10.3154C148.685 10.2602 148.677 10.1151 148.733 10.0865C148.79 10.0579 148.798 10.1723 148.815 10.2091C148.978 10.5955 149.547 10.8776 149.959 10.8919C150.162 10.898 150.12 10.7937 150.058 10.6588C149.955 10.4319 149.65 9.98836 149.945 9.78191C150.143 9.64291 150.348 9.80235 150.466 9.96179C150.627 10.1866 150.713 10.3992 150.972 10.5525C151.131 10.6466 151.505 10.6793 151.547 10.8837C151.598 11.1392 151.2 11.2026 151.022 11.2271C150.959 11.2353 150.869 11.2332 150.813 11.2475C150.694 11.2802 150.771 11.452 150.8 11.5317C150.922 11.8751 151.043 12.1572 151.095 12.5251C151.139 12.8338 151.15 13.4674 150.748 13.5533C150.407 13.6248 150.261 13.2835 150.106 13.0668C149.851 12.707 149.484 12.288 149.009 12.2308C148.436 12.1613 148.07 12.6825 148.392 13.167C148.608 13.4879 149.058 13.7168 149.424 13.8333C151.321 14.4404 152.704 12.3902 151.861 10.7692C151.223 9.54275 149.627 9.15845 148.474 9.92908C147.53 10.5607 147.183 11.8506 147.564 12.8808C147.568 12.8951 147.629 13.0055 147.61 13.0116ZM150.395 10.0436C150.317 10.019 150.248 10.066 150.223 10.1396C150.171 10.3011 150.369 10.7345 150.495 10.8448C150.643 10.9736 150.899 10.8776 150.838 10.6711C150.813 10.5873 150.597 10.2541 150.535 10.1703C150.499 10.1233 150.453 10.064 150.395 10.0456V10.0436Z" fill="white"/>
<path d="M189.191 6.53794C189.088 5.60582 188.785 5.0212 188.289 4.80248C188.034 4.69005 187.768 4.69619 187.54 4.74933C187.479 4.48973 187.36 4.18107 187.117 3.946C186.881 3.71501 186.565 3.59236 186.18 3.60258C185.87 3.62507 185.644 3.70479 185.479 3.79882C185.266 3.59237 184.914 3.42884 184.372 3.46972C183.416 3.53922 182.958 5.05186 182.797 5.74686C182.449 5.72029 182.09 5.81432 181.751 6.03304C181.123 6.43573 181.318 7.32492 181.539 8.35311C181.721 9.19529 181.928 10.1499 181.74 10.9553C181.004 14.1093 177.721 16.2965 175.947 17.2716C175.943 17.2328 175.941 17.2 175.941 17.1796C175.941 17.0733 175.89 16.9711 175.802 16.9057C175.715 16.8403 175.602 16.8178 175.497 16.8464C175.472 16.8525 172.909 17.521 171.22 17.2818C169.666 17.0631 168.038 16.6522 165.977 16.133C165.565 16.0288 165.138 15.9204 164.689 15.81C164.314 15.7181 163.904 15.6281 163.377 15.53C163.144 15.4993 162.896 15.4564 162.632 15.4135C160.427 15.0455 157.138 14.4977 154.186 18.1771L154.064 17.5802C154.391 17.2511 154.6 16.8342 154.646 16.3722L155.554 7.16752C156.451 6.88135 157.125 6.07392 157.163 5.09888C157.198 4.13201 156.598 3.25509 155.682 2.90963C155.407 1.97138 154.552 1.30909 153.543 1.27229C153.303 1.26412 153.06 1.29478 152.824 1.36223C152.353 0.550719 151.499 0.0376459 150.53 0.00289597C149.645 -0.0379864 148.809 0.356528 148.267 1.02495C147.953 0.830763 147.601 0.722425 147.231 0.71016C146.145 0.671322 145.231 1.42356 145.068 2.45379C144.369 2.78698 143.909 3.46767 143.881 4.23626C143.86 4.78817 144.061 5.31555 144.446 5.71825C144.62 5.90222 144.825 6.0453 145.047 6.15364L144.135 15.3828C144.026 16.4948 144.861 17.4862 145.999 17.5925L146.921 17.6804C147.003 19.1767 147.593 27.2714 150.729 27.2714C150.742 27.2714 150.754 27.2714 150.765 27.2714C153.365 27.2203 155.522 25.9918 156.228 25.5421C157.272 29.3441 160.745 31.1041 164.011 31.1041C167.603 31.1041 170.44 29.571 172.005 26.787C173.587 26.7052 176.01 26.4885 177.298 25.9243C177.447 25.8589 177.531 25.7015 177.499 25.5441C177.451 25.305 177.401 25.0535 177.351 24.796C181.276 23.0319 189.933 17.8317 189.191 6.5318V6.53794ZM144.898 5.31147C144.626 5.02529 144.484 4.65326 144.499 4.26283C144.522 3.67413 144.9 3.15697 145.465 2.94847C145.578 2.90554 145.656 2.80334 145.664 2.68682C145.716 1.89166 146.382 1.28456 147.21 1.31931C147.549 1.33157 147.869 1.45831 148.135 1.68725C148.204 1.74653 148.294 1.7731 148.386 1.75879C148.476 1.74448 148.555 1.69338 148.604 1.61775C149.007 0.971807 149.738 0.593646 150.51 0.614087C151.336 0.644749 152.056 1.12307 152.388 1.86713C152.457 2.01839 152.637 2.08789 152.794 2.02248C153.035 1.92232 153.282 1.87531 153.524 1.88348C154.307 1.9121 154.964 2.45788 155.123 3.21011C155.146 3.31845 155.228 3.40635 155.336 3.43906C156.079 3.65573 156.577 4.33233 156.55 5.08457C156.514 6.00033 155.719 6.71577 154.788 6.68307C154.246 6.66263 153.759 6.39689 153.449 5.95332C153.386 5.86338 153.284 5.81023 153.171 5.82249C153.06 5.83067 152.964 5.89404 152.916 5.99216C152.621 6.58699 151.991 6.9488 151.323 6.93041C150.675 6.90588 150.106 6.52771 149.838 5.93901C149.8 5.85724 149.729 5.79592 149.641 5.77139C149.612 5.76322 149.585 5.75913 149.555 5.75913C149.495 5.75913 149.434 5.77548 149.384 5.81023C149.118 5.98398 148.815 6.07392 148.499 6.05961C148.064 6.04326 147.656 5.8368 147.38 5.49339C147.329 5.43002 147.252 5.38914 147.17 5.37892C147.085 5.3687 147.005 5.39323 146.94 5.44433C146.649 5.67532 146.302 5.79183 145.944 5.77753C145.545 5.76322 145.174 5.59764 144.902 5.31147H144.898ZM146.059 16.9956C145.262 16.92 144.674 16.225 144.752 15.4462L145.649 6.34579C145.737 6.3601 145.827 6.37849 145.917 6.38054C146.323 6.39894 146.733 6.28855 147.087 6.07801C147.461 6.43369 147.951 6.64219 148.472 6.66058C148.806 6.67489 149.129 6.60744 149.428 6.47252C149.834 7.10416 150.524 7.50276 151.298 7.52933C151.328 7.52933 151.355 7.52933 151.384 7.52933C152.114 7.52933 152.794 7.19205 153.229 6.63401C153.637 7.03057 154.177 7.26155 154.763 7.28199C154.817 7.28199 154.872 7.28199 154.924 7.27995L154.033 16.317C153.955 17.0958 153.242 17.6722 152.447 17.5946L146.061 16.9936L146.059 16.9956ZM156.056 24.8287C156.033 24.845 153.639 26.5314 150.75 26.5887C150.744 26.5887 150.738 26.5887 150.729 26.5887C148.823 26.5887 147.831 21.2781 147.629 17.752L152.382 18.1996C152.449 18.2057 152.518 18.2098 152.585 18.2098C152.882 18.2098 153.167 18.1424 153.434 18.0238L154.336 22.4514C154.37 22.6149 154.516 22.7273 154.681 22.7273C154.704 22.7273 154.727 22.7253 154.75 22.7212C154.935 22.6844 155.054 22.5147 155.027 22.3349L155.918 22.8132C155.914 22.9072 155.91 23.0012 155.91 23.0994C155.91 23.7126 155.964 24.287 156.062 24.8246C156.06 24.8246 156.056 24.8246 156.054 24.8287H156.056ZM177.211 24.1051C176.769 21.8709 176.275 19.3034 176.056 18.0034C177.851 17.0508 181.594 14.6776 182.426 11.1127C182.65 10.1601 182.426 9.12579 182.228 8.21411C182.087 7.56408 181.912 6.75461 182.136 6.61152C182.334 6.48274 182.638 6.35601 182.952 6.48274C183.399 6.66263 183.761 7.30039 183.975 8.27952C184.014 8.46554 184.201 8.58205 184.393 8.54526C184.584 8.50642 184.705 8.32245 184.665 8.13643C184.429 7.04692 184.027 6.32126 183.468 5.97172C183.644 5.1786 184.044 4.1872 184.425 4.15858C184.958 4.11975 185.046 4.36504 185.056 4.40592C185.084 4.55923 185.207 4.68597 185.364 4.70232C185.521 4.71867 185.667 4.63691 185.724 4.49178C185.728 4.48564 185.824 4.32416 186.209 4.2935C186.374 4.2935 186.513 4.33642 186.615 4.43658C186.843 4.65735 186.891 5.09683 186.891 5.24401C186.891 5.37279 186.962 5.49135 187.077 5.55063C187.193 5.61195 187.337 5.60173 187.444 5.53019C187.448 5.52814 187.76 5.32578 187.996 5.43207C188.237 5.54041 188.414 5.96967 188.483 6.59721C189.189 17.3084 181.064 22.3349 177.206 24.1051H177.211Z" fill="#7FBE26"/>
<path d="M84.1651 26.5846C83.3533 26.0062 82.5122 25.4256 81.6377 24.8778C81.169 27.7743 78.2671 29.4198 75.5849 29.4198C71.3732 29.4198 69.2496 26.6766 69.2496 23.8108C69.2496 20.3664 72.5574 18.3836 76.2398 18.2324V16.9834H71.5595V12.8686H76.2398V11.4664H70.3732V7.19824H76.2398V4.51636H81.7005V7.19824H86.818V11.4664H81.7005V12.8686H85.9435V16.9834H81.7005V19.1175C83.573 19.7573 85.5083 20.7937 87.3788 22.2879L84.1651 26.5867V26.5846ZM76.426 22.5904C76.0828 22.5291 75.7711 22.4984 75.4594 22.4984C74.8673 22.4984 73.9613 22.8337 73.9613 23.7781C73.9613 24.4792 74.3986 24.9964 75.1476 24.9964C75.7711 24.9964 76.426 24.5691 76.426 23.6861V22.5884V22.5904Z" fill="#007D4F"/>
<path d="M112.245 20.9695C111.362 24.238 108.866 26.9056 106.989 27.8745L103.317 24.3586C104.449 23.5676 106.232 21.4294 106.778 19.4037C107.372 17.2063 106.79 15.1376 105.056 13.8233C102.671 22.057 98.3294 24.5263 94.5404 23.5471C90.7221 22.5619 89.404 19.0031 90.3643 15.4463C91.8352 10.0089 96.8105 6.24981 104.654 8.27349C110.96 9.9006 113.808 15.1846 112.243 20.9695H112.245ZM100.328 12.5723C97.798 12.9095 95.8397 14.8801 95.3396 16.73C95.097 17.6274 95.099 18.5554 95.9589 18.7762C97.1139 19.0746 98.7793 16.7811 100.33 12.5702L100.328 12.5723Z" fill="#007D4F"/>
<path d="M44.1115 9.53457V5.62622H50.3422V9.53457H54.2107V14.3403H50.2752C49.8484 19.8185 47.8482 23.5981 44.3731 26.1614L39.9145 22.0282C42.5047 20.0413 43.7517 17.384 44.0467 14.3403H40.3413V9.53457H44.1115ZM54.0789 22.5086H65.8832V27.8907C64.5379 28.179 62.5064 28.3077 60.3744 28.3077C58.1127 28.3077 55.784 28.1483 54.0789 27.8274V22.5086ZM55.5874 12.9932H65.1614V18.1199H55.5874V12.9932Z" fill="#007D4F"/>
<path d="M138.854 25.1292C138.155 24.5671 137.398 23.9948 136.571 23.4428C135.864 25.1783 135.056 26.7461 134.077 28.0114L128.646 27.2102C129.771 25.1987 130.738 23.0095 131.569 20.6792C130.772 20.3481 130.006 20.019 129.232 19.7532C128.177 23.124 125.476 26.1922 121.118 25.5483C117.741 25.0516 115.32 22.6395 115.844 19.2504C116.505 14.9618 120.574 13.4165 125.397 13.6965C125.579 12.9259 125.738 12.0919 125.903 11.2252L120.379 10.4116L121.074 5.91455L131.968 7.52123C131.573 9.67164 131.027 12.1961 130.504 14.5734C131.405 14.8289 132.303 15.1151 133.161 15.4565C133.454 14.3649 133.684 13.2959 133.916 12.1941L139.195 12.9729C138.979 14.5653 138.651 16.2966 138.255 18.0464C139.622 18.954 140.816 19.9576 141.747 21.0451L138.858 25.1272L138.854 25.1292ZM124.181 18.5206C122.141 18.3121 120.859 18.8906 120.679 20.0598C120.587 20.6588 120.823 21.1534 121.315 21.227C122.664 21.4253 123.503 20.4768 124.181 18.5206Z" fill="#007D4F"/>
</svg>
